# xmcd
#
# Track frame offsets:
#	150
#	16026
#	31780
#	47074
#	64624
#	83117
#	100716
#	115509
#	130277
#	149042
#	162876
#	180008
#	196819
#	211246
#	227742
#	244394
#	261203
#	279440
#	294583
#	311809
#	330416
#
# Disc length: 4654 seconds
#
# Revision: 2
# Processed by: cddbd v1.5.2PL0 Copyright (c) Steve Scherf et al.
# Submitted via: EasyCDDAExtractor 11.5.0.1
#
DISCID=1c122c15
DTITLE=Various Artist - NCT 088
DYEAR=2006
DGENRE=Country
TTITLE0=Alan Jackson - Like Red On A Rose
TTITLE1=George Strait - Give It Away
TTITLE2=Montgomery Gentry - Some People Change
TTITLE3=Dierks Bentley - Every Mile A Memory
TTITLE4=Joe Nichols - I'll Wait For You
TTITLE5=The Lost Trailers - Why Me
TTITLE6=Lane Turner - Let You Go
TTITLE7=Jo Dee Messina - It's Too Late To Worry
TTITLE8=LeAnn Rimes - Some People
TTITLE9=Billy Dean - Swinging For The Fence
TTITLE10=Neal McCoy - Tailgate
TTITLE11=Katrina Elam - Love Is
TTITLE12=Billy Ray Cyrus - Wanna Be Your Joe
TTITLE13=Phil Vasser - The Woman In My Life
TTITLE14=Bob Seger - Wait For Me
TTITLE15=Reckless Kelly - Break My Heart Tonight
TTITLE16=Radney Foster - Half Of My Mistakes
TTITLE17=Chris Young - Drinkin' Me Lonely
TTITLE18=Honeybrowne - I'm Here
TTITLE19=Alvarado Road Show - I Hope She's Happy
TTITLE20=Billy Joe Shaver with Kevin Fowler - Slim Chance and The Can't Hardly
TTITLE20=Playboys
EXTD=
EXTT0=
EXTT1=
EXTT2=
EXTT3=
EXTT4=
EXTT5=
EXTT6=
EXTT7=
EXTT8=
EXTT9=
EXTT10=
EXTT11=
EXTT12=
EXTT13=
EXTT14=
EXTT15=
EXTT16=
EXTT17=
EXTT18=
EXTT19=
EXTT20=
PLAYORDER=
